<svg width="24" height="24" viewBox="0 0 24 24" fill="none" xmlns="http://www.w3.org/2000/svg">
<path d="M11.0736 13.8292C11.0736 12.6764 10.0977 11.7363 8.90108 11.7363C7.70447 11.7363 6.72852 12.6765 6.72852 13.8292C6.72852 14.9819 7.70447 15.9221 8.90108 15.9221C10.1026 15.9221 11.0736 14.9819 11.0736 13.8292ZM8.1164 13.8292C8.1164 13.4135 8.4695 13.0733 8.90108 13.0733C9.33265 13.0733 9.68575 13.4135 9.68575 13.8292C9.68575 14.245 9.33265 14.5851 8.90108 14.5851C8.4695 14.5851 8.1164 14.2497 8.1164 13.8292Z" fill="#1A162E"/>
<path d="M15.1638 11.7383C13.9671 11.7383 12.9912 12.6784 12.9912 13.8312C12.9912 14.9839 13.9672 15.9241 15.1638 15.9241C16.3604 15.9241 17.3363 14.9839 17.3363 13.8312C17.3314 12.6737 16.3604 11.7383 15.1638 11.7383ZM15.1638 14.5824C14.7322 14.5824 14.3791 14.2422 14.3791 13.8265C14.3791 13.4107 14.7322 13.0706 15.1638 13.0706C15.5953 13.0706 15.9484 13.4107 15.9484 13.8265C15.9484 14.2422 15.5953 14.5824 15.1638 14.5824Z" fill="#1A162E"/>
<path d="M12.0002 0C5.93358 0 1 4.75741 1 10.6016C1 13.337 2.07402 15.9166 4.02099 17.8962C5.23724 21.4584 8.35633 24 12 24C15.6437 24 18.763 21.4583 19.979 17.8915C21.926 15.9167 23 13.3323 23 10.5968C23 4.75741 18.0664 0 11.9998 0H12.0002ZM3.48181 14.9102C3.1189 14.2488 2.84425 13.5449 2.6579 12.8126C3.01591 12.6756 3.369 12.5339 3.70739 12.3921C3.53084 13.2047 3.45237 14.041 3.4818 14.9102L3.48181 14.9102ZM13.045 1.38913C12.7948 3.02848 11.2942 7.96069 2.42228 11.4711C1.82888 4.96561 7.75312 0.761082 13.045 1.38913ZM12.0004 22.6675C8.06228 22.6675 4.8549 19.0391 4.8549 14.5793C4.8549 13.5636 5.02654 12.5809 5.34534 11.6503C8.55761 10.0676 10.6417 8.30068 11.9904 6.65657C13.0693 8.05028 15.5558 10.866 18.7583 11.9997C19.0084 12.8265 19.1409 13.691 19.1409 14.5792C19.1409 19.039 15.9384 22.6673 12.0003 22.6673L12.0004 22.6675ZM20.2883 12.3872C20.661 12.4439 21.0386 12.4817 21.4212 12.4817C21.2397 13.3321 20.9357 14.1447 20.5188 14.9101C20.5581 14.0975 20.4698 13.2565 20.2883 12.3873L20.2883 12.3872ZM21.6026 11.1447C17.4095 11.225 13.8146 6.81233 12.8439 5.50398C13.9032 3.88351 14.2857 2.47568 14.4132 1.62998C18.9006 2.79691 21.9021 6.76534 21.6026 11.1448V11.1447Z" fill="#1A162E"/>
<path d="M15.0753 19.5634C15.3892 19.3508 15.4628 18.9351 15.2421 18.6327C15.0214 18.3304 14.5898 18.2595 14.2759 18.4721C12.9126 19.3933 11.0784 19.3933 9.71497 18.4721C9.4011 18.2595 8.96953 18.3351 8.74883 18.6327C8.52814 18.9351 8.60661 19.3508 8.91558 19.5634C10.8576 20.8248 13.1626 20.7965 15.0755 19.5634H15.0753Z" fill="#1A162E"/>
</svg>
