<svg xmlns="http://www.w3.org/2000/svg" width="22" height="22" viewBox="0 0 22 22" fill="none">
  <path d="M9.99224 21.0429H2.69555L1.91451 6.68834H12.3924L12.2972 8.33428H12.2971C12.2866 8.46028 12.3273 8.58527 12.4097 8.68073C12.4923 8.77619 12.6097 8.83426 12.7353 8.8416C12.8618 8.85796 12.9894 8.81924 13.0859 8.73513C13.1823 8.65102 13.2384 8.52953 13.2401 8.40137L13.3449 6.68831H13.8497C13.9761 6.68831 14.0972 6.63791 14.1866 6.54813C14.2758 6.45851 14.3259 6.33669 14.3259 6.20986C14.3259 6.08303 14.2758 5.96121 14.1866 5.87159C14.0972 5.7818 13.9761 5.73141 13.8497 5.73141H7.62971V3.15708C7.63021 2.80162 7.80944 2.47054 8.10593 2.2768L10.2396 0.879664V0.879498C10.3461 0.811074 10.4203 0.70227 10.4456 0.577775C10.4707 0.453279 10.4444 0.323947 10.373 0.219313C10.2306 -0.00247294 9.9368 -0.0665556 9.71571 0.0756269L7.55345 1.47293C7.00013 1.85242 6.67159 2.48407 6.67708 3.15711V5.73144H0.476226C0.213275 5.73144 0 5.94555 0 6.20988C0 6.33671 0.0501654 6.45853 0.13953 6.54815C0.228898 6.63794 0.349989 6.68833 0.476235 6.68833H0.962114L1.76225 21.5406C1.77238 21.7974 1.98267 22.0002 2.23847 22H9.98252C10.1088 22 10.2299 21.9496 10.3192 21.8598C10.4086 21.77 10.4588 21.6484 10.4588 21.5214C10.4588 21.2609 10.2513 21.0481 9.99197 21.0429L9.99224 21.0429Z" fill="#1A162E"/>
  <path d="M18.4706 15.3011L21.9188 10.3056C22.066 10.0863 22.0085 9.78861 21.7901 9.64062C21.5718 9.4926 21.2755 9.5505 21.1282 9.76979L17.318 15.2724H15.3559C15.3241 15.131 15.3082 14.9865 15.3082 14.8416C15.303 14.2088 15.5479 13.5997 15.9887 13.1478C16.4298 12.6957 17.0311 12.4377 17.6609 12.4302C17.9108 12.4272 18.1593 12.4693 18.3943 12.5545C18.6466 12.6368 18.918 12.5005 19.0039 12.2483C19.0134 12.1817 19.0134 12.114 19.0039 12.0474V11.9805V11.9803C19.0347 10.7974 18.4347 9.68784 17.4304 9.06987C16.4259 8.45172 15.1696 8.41887 14.1346 8.98359C13.0996 9.5485 12.4431 10.6252 12.4124 11.8081C11.834 12.0806 11.3455 12.5138 11.0045 13.0565C10.6635 13.5992 10.4844 14.2287 10.4883 14.8704C10.4912 15.0951 10.5134 15.3194 10.555 15.5402C10.5109 15.629 10.4943 15.7291 10.5073 15.8274L11.4597 21.5693H11.4599C11.4971 21.7997 11.6943 21.9696 11.9267 21.9713H19.547C19.7794 21.9696 19.9766 21.7997 20.0138 21.5693L20.9662 15.8274C20.981 15.7218 20.9609 15.6142 20.9091 15.5212C20.9538 15.2973 20.9793 15.07 20.9853 14.8417C20.9842 14.4909 20.9295 14.1424 20.8234 13.8082C20.7445 13.544 20.4672 13.394 20.2043 13.4733C19.9411 13.5525 19.792 13.8311 19.8709 14.0952C19.9498 14.3364 19.9915 14.588 19.9946 14.8417C20.0117 14.9943 20.018 15.1478 20.0137 15.3012L18.4706 15.3011ZM15.7273 9.55928C16.2723 9.56228 16.7995 9.75436 17.2196 10.1031C17.6399 10.4521 17.9269 10.936 18.0324 11.4732H17.6609C16.953 11.4759 16.2661 11.7149 15.7082 12.1527C15.1563 11.7427 14.4896 11.5182 13.8032 11.5116H13.4316C13.5306 10.9697 13.8135 10.4791 14.2321 10.1231C14.6505 9.76716 15.1789 9.56791 15.7272 9.55924L15.7273 9.55928ZM13.8222 12.4301V12.4303C14.264 12.4298 14.6969 12.556 15.07 12.7939C14.6338 13.3725 14.3964 14.0778 14.3938 14.8035C14.383 14.9469 14.383 15.0907 14.3938 15.2341H11.4409C11.4311 15.1004 11.4311 14.9661 11.4409 14.8322C11.4384 14.2026 11.6829 13.5975 12.1216 13.1477C12.5601 12.6982 13.1576 12.4403 13.7842 12.4303L13.8222 12.4301ZM19.1755 21.0429H12.3172L11.5265 16.258H19.928L19.1755 21.0429Z" fill="#1A162E"/>
</svg>