<svg width="24" height="24" viewBox="0 0 24 24" fill="none" xmlns="http://www.w3.org/2000/svg">
<path d="M11.4521 5.26562C11.1414 5.26562 10.8896 5.51741 10.8896 5.82812V11.453C10.8896 11.7637 11.1414 12.0155 11.4521 12.0155C11.7628 12.0155 12.0146 11.7637 12.0146 11.453V5.82812C12.0146 5.5174 11.7628 5.26562 11.4521 5.26562Z" fill="#1A162E"/>
<path d="M9.20214 15.0156C8.89143 15.0156 8.63965 15.2674 8.63965 15.5781V18.9531C8.63965 19.2638 8.89144 19.5156 9.20214 19.5156C9.51284 19.5156 9.76463 19.2638 9.76463 18.9531V15.5781C9.76463 15.2674 9.51284 15.0156 9.20214 15.0156Z" fill="#1A162E"/>
<path d="M20.8271 20.2657H16.4262C16.718 19.8448 16.8897 19.3344 16.8897 18.7845V15.372C16.8897 14.0557 15.9088 12.965 14.6397 12.7906V5.26561C14.6397 3.81824 13.4621 2.64062 12.0147 2.64062C10.5674 2.64062 9.38975 3.81827 9.38975 5.26561V12.7906C8.12063 12.9649 7.13975 14.0557 7.13975 15.372V18.7845C7.13975 19.3344 7.31145 19.8448 7.6034 20.2657H3.20214C2.89143 20.2657 2.63965 20.5175 2.63965 20.8282C2.63965 21.1389 2.89144 21.3907 3.20214 21.3907H20.8271C21.1378 21.3907 21.3895 21.1389 21.3895 20.8282C21.3895 20.5175 21.1378 20.2657 20.8271 20.2657H20.8271ZM10.5146 5.26571C10.5146 4.43857 11.1875 3.76571 12.0146 3.76571C12.8418 3.76571 13.5146 4.43857 13.5146 5.26571V12.7657H10.5146V5.26571ZM9.74588 20.2657C8.92919 20.2657 8.26463 19.6012 8.26463 18.7845V15.372C8.26463 14.5553 8.92919 13.8907 9.74588 13.8907H14.2832C15.0999 13.8907 15.7645 14.5553 15.7645 15.372V18.7845C15.7645 19.6012 15.0999 20.2657 14.2832 20.2657H9.74588Z" fill="#1A162E"/>
</svg>
